<?xml version="1.0" encoding="utf-8" standalone="no"?>
<!DOCTYPE svg PUBLIC "-//W3C//DTD SVG 1.1//EN"
  "http://www.w3.org/Graphics/SVG/1.1/DTD/svg11.dtd">
<svg xmlns:xlink="http://www.w3.org/1999/xlink" width="422.857896pt" height="247.805111pt" viewBox="0 0 422.857896 247.805111" xmlns="http://www.w3.org/2000/svg" version="1.1">
 <metadata>
  <rdf:RDF xmlns:dc="http://purl.org/dc/elements/1.1/" xmlns:cc="http://creativecommons.org/ns#" xmlns:rdf="http://www.w3.org/1999/02/22-rdf-syntax-ns#">
   <cc:Work>
    <dc:type rdf:resource="http://purl.org/dc/dcmitype/StillImage"/>
    <dc:date>2025-06-04T15:04:29.522932</dc:date>
    <dc:format>image/svg+xml</dc:format>
    <dc:creator>
     <cc:Agent>
      <dc:title>Matplotlib v3.9.2, https://matplotlib.org/</dc:title>
     </cc:Agent>
    </dc:creator>
   </cc:Work>
  </rdf:RDF>
 </metadata>
 <defs>
  <style type="text/css">*{stroke-linejoin: round; stroke-linecap: butt}</style>
 </defs>
 <g id="figure_1">
  <g id="patch_1">
   <path d="M 0 247.805111 
L 422.857896 247.805111 
L 422.857896 0 
L 0 0 
z
" style="fill: #ffffff"/>
  </g>
  <g id="axes_1">
   <g id="patch_2">
    <path d="M 34.681519 194.286614 
L 415.657896 194.286614 
L 415.657896 7.2 
L 34.681519 7.2 
z
" style="fill: #ffffff"/>
   </g>
   <g id="patch_3">
    <path d="M 415.657896 190.945782 
L 34.681519 190.945782 
L 34.681519 174.24162 
L 415.657896 174.24162 
z
" clip-path="url(#pe98113e271)" style="fill: #f2f2f2"/>
   </g>
   <g id="patch_4">
    <path d="M 415.657896 174.24162 
L 34.681519 174.24162 
L 34.681519 23.904162 
L 415.657896 23.904162 
z
" clip-path="url(#pe98113e271)" style="fill: #dfdfdf"/>
   </g>
   <g id="patch_5">
    <path d="M 415.657896 23.904162 
L 34.681519 23.904162 
L 34.681519 7.2 
L 415.657896 7.2 
z
" clip-path="url(#pe98113e271)" style="fill: #cccccc"/>
   </g>
   <g id="GridlinesCollection_1">
    <path clip-path="url(#pe98113e271)" style="fill: none; stroke: #b0b0b0; stroke-width: 0.5"/>
    <path d="M 382.529516 194.286614 
L 382.529516 7.2 
" clip-path="url(#pe98113e271)" style="fill: none; stroke: #b0b0b0; stroke-width: 0.5"/>
    <path d="M 316.272754 194.286614 
L 316.272754 7.2 
" clip-path="url(#pe98113e271)" style="fill: none; stroke: #b0b0b0; stroke-width: 0.5"/>
    <path d="M 250.015993 194.286614 
L 250.015993 7.2 
" clip-path="url(#pe98113e271)" style="fill: none; stroke: #b0b0b0; stroke-width: 0.5"/>
    <path d="M 183.759232 194.286614 
L 183.759232 7.2 
" clip-path="url(#pe98113e271)" style="fill: none; stroke: #b0b0b0; stroke-width: 0.5"/>
    <path d="M 117.50247 194.286614 
L 117.50247 7.2 
" clip-path="url(#pe98113e271)" style="fill: none; stroke: #b0b0b0; stroke-width: 0.5"/>
    <path d="M 51.245709 194.286614 
L 51.245709 7.2 
" clip-path="url(#pe98113e271)" style="fill: none; stroke: #b0b0b0; stroke-width: 0.5"/>
    <path clip-path="url(#pe98113e271)" style="fill: none; stroke: #b0b0b0; stroke-width: 0.5"/>
    <path d="M 34.681519 224.354106 
L 415.657896 224.354106 
" clip-path="url(#pe98113e271)" style="fill: none; stroke: #b0b0b0; stroke-width: 0.5"/>
    <path d="M 34.681519 190.945782 
L 415.657896 190.945782 
" clip-path="url(#pe98113e271)" style="fill: none; stroke: #b0b0b0; stroke-width: 0.5"/>
    <path d="M 34.681519 157.537458 
L 415.657896 157.537458 
" clip-path="url(#pe98113e271)" style="fill: none; stroke: #b0b0b0; stroke-width: 0.5"/>
    <path d="M 34.681519 124.129134 
L 415.657896 124.129134 
" clip-path="url(#pe98113e271)" style="fill: none; stroke: #b0b0b0; stroke-width: 0.5"/>
    <path d="M 34.681519 90.72081 
L 415.657896 90.72081 
" clip-path="url(#pe98113e271)" style="fill: none; stroke: #b0b0b0; stroke-width: 0.5"/>
    <path d="M 34.681519 57.312486 
L 415.657896 57.312486 
" clip-path="url(#pe98113e271)" style="fill: none; stroke: #b0b0b0; stroke-width: 0.5"/>
    <path d="M 34.681519 23.904162 
L 415.657896 23.904162 
" clip-path="url(#pe98113e271)" style="fill: none; stroke: #b0b0b0; stroke-width: 0.5"/>
    <path clip-path="url(#pe98113e271)" style="fill: none; stroke: #b0b0b0; stroke-width: 0.5"/>
   </g>
   <g id="line2d_1">
    <path d="M 392.167378 19.951245 
L 331.748665 48.051395 
L 271.329951 87.021854 
L 210.911238 122.98408 
L 150.492525 158.87083 
L 120.283168 173.882323 
L 90.073811 176.591539 
L 59.864454 190.945736 
" clip-path="url(#pe98113e271)" style="fill: none; stroke-dasharray: 7.4,3.2; stroke-dashoffset: 0; stroke: #011959; stroke-width: 2"/>
    <defs>
     <path id="m4a6eedfd54" d="M -2.5 2.5 
L 2.5 2.5 
L 2.5 -2.5 
L -2.5 -2.5 
z
" style="stroke: #011959; stroke-linejoin: miter"/>
    </defs>
    <g clip-path="url(#pe98113e271)">
     <use xlink:href="#m4a6eedfd54" x="392.167378" y="19.951245" style="fill: #011959; stroke: #011959; stroke-linejoin: miter"/>
     <use xlink:href="#m4a6eedfd54" x="331.748665" y="48.051395" style="fill: #011959; stroke: #011959; stroke-linejoin: miter"/>
     <use xlink:href="#m4a6eedfd54" x="271.329951" y="87.021854" style="fill: #011959; stroke: #011959; stroke-linejoin: miter"/>
     <use xlink:href="#m4a6eedfd54" x="210.911238" y="122.98408" style="fill: #011959; stroke: #011959; stroke-linejoin: miter"/>
     <use xlink:href="#m4a6eedfd54" x="150.492525" y="158.87083" style="fill: #011959; stroke: #011959; stroke-linejoin: miter"/>
     <use xlink:href="#m4a6eedfd54" x="120.283168" y="173.882323" style="fill: #011959; stroke: #011959; stroke-linejoin: miter"/>
     <use xlink:href="#m4a6eedfd54" x="90.073811" y="176.591539" style="fill: #011959; stroke: #011959; stroke-linejoin: miter"/>
     <use xlink:href="#m4a6eedfd54" x="59.864454" y="190.945736" style="fill: #011959; stroke: #011959; stroke-linejoin: miter"/>
    </g>
   </g>
   <g id="line2d_2">
    <path d="M 392.167378 57.529269 
L 331.748665 95.138208 
L 271.329951 126.122132 
L 210.911238 140.558146 
L 150.492525 175.318197 
L 120.283168 185.957593 
" clip-path="url(#pe98113e271)" style="fill: none; stroke-dasharray: 7.4,3.2; stroke-dashoffset: 0; stroke: #f8a17b; stroke-width: 2"/>
    <defs>
     <path id="m153164f5ad" d="M -2.5 2.5 
L 2.5 2.5 
L 2.5 -2.5 
L -2.5 -2.5 
z
" style="stroke: #f8a17b; stroke-linejoin: miter"/>
    </defs>
    <g clip-path="url(#pe98113e271)">
     <use xlink:href="#m153164f5ad" x="392.167378" y="57.529269" style="fill: #f8a17b; stroke: #f8a17b; stroke-linejoin: miter"/>
     <use xlink:href="#m153164f5ad" x="331.748665" y="95.138208" style="fill: #f8a17b; stroke: #f8a17b; stroke-linejoin: miter"/>
     <use xlink:href="#m153164f5ad" x="271.329951" y="126.122132" style="fill: #f8a17b; stroke: #f8a17b; stroke-linejoin: miter"/>
     <use xlink:href="#m153164f5ad" x="210.911238" y="140.558146" style="fill: #f8a17b; stroke: #f8a17b; stroke-linejoin: miter"/>
     <use xlink:href="#m153164f5ad" x="150.492525" y="175.318197" style="fill: #f8a17b; stroke: #f8a17b; stroke-linejoin: miter"/>
     <use xlink:href="#m153164f5ad" x="120.283168" y="185.957593" style="fill: #f8a17b; stroke: #f8a17b; stroke-linejoin: miter"/>
    </g>
   </g>
   <g id="line2d_3">
    <path d="M 392.167378 114.250318 
L 331.748665 127.812224 
L 271.329951 138.710933 
L 210.911238 156.334063 
L 150.492525 173.245076 
L 90.073811 184.706298 
" clip-path="url(#pe98113e271)" style="fill: none; stroke-dasharray: 12.8,3.2,2,3.2; stroke-dashoffset: 0; stroke: #011959; stroke-width: 2"/>
    <defs>
     <path id="m3cc2685a48" d="M -2.5 2.5 
L 2.5 -2.5 
M -2.5 -2.5 
L 2.5 2.5 
" style="stroke: #011959"/>
    </defs>
    <g clip-path="url(#pe98113e271)">
     <use xlink:href="#m3cc2685a48" x="392.167378" y="114.250318" style="fill: #011959; stroke: #011959"/>
     <use xlink:href="#m3cc2685a48" x="331.748665" y="127.812224" style="fill: #011959; stroke: #011959"/>
     <use xlink:href="#m3cc2685a48" x="271.329951" y="138.710933" style="fill: #011959; stroke: #011959"/>
     <use xlink:href="#m3cc2685a48" x="210.911238" y="156.334063" style="fill: #011959; stroke: #011959"/>
     <use xlink:href="#m3cc2685a48" x="150.492525" y="173.245076" style="fill: #011959; stroke: #011959"/>
     <use xlink:href="#m3cc2685a48" x="90.073811" y="184.706298" style="fill: #011959; stroke: #011959"/>
    </g>
   </g>
   <g id="line2d_4">
    <path d="M 392.167378 66.69026 
L 271.329951 109.055859 
L 210.911238 130.56787 
L 150.492525 164.805181 
" clip-path="url(#pe98113e271)" style="fill: none; stroke-dasharray: 2,3.3; stroke-dashoffset: 0; stroke: #011959; stroke-width: 2"/>
    <defs>
     <path id="m2d8b3e7b81" d="M 0 3.535534 
L 2.12132 0 
L 0 -3.535534 
L -2.12132 0 
z
" style="stroke: #011959; stroke-linejoin: miter"/>
    </defs>
    <g clip-path="url(#pe98113e271)">
     <use xlink:href="#m2d8b3e7b81" x="392.167378" y="66.69026" style="fill: #011959; stroke: #011959; stroke-linejoin: miter"/>
     <use xlink:href="#m2d8b3e7b81" x="271.329951" y="109.055859" style="fill: #011959; stroke: #011959; stroke-linejoin: miter"/>
     <use xlink:href="#m2d8b3e7b81" x="210.911238" y="130.56787" style="fill: #011959; stroke: #011959; stroke-linejoin: miter"/>
     <use xlink:href="#m2d8b3e7b81" x="150.492525" y="164.805181" style="fill: #011959; stroke: #011959; stroke-linejoin: miter"/>
    </g>
   </g>
   <g id="mpl_toolkits.axisartist.axis_artist_1">
    <defs>
     <path id="m7b00320376" d="M 0 0 
L 0 -3.5 
" style="stroke: #000000; stroke-width: 0.8"/>
    </defs>
    <g>
     <use xlink:href="#m7b00320376" x="382.529516" y="194.286614" style="fill: none; stroke: #000000; stroke-width: 0.8"/>
    </g>
    <g>
     <use xlink:href="#m7b00320376" x="316.272754" y="194.286614" style="fill: none; stroke: #000000; stroke-width: 0.8"/>
    </g>
    <g>
     <use xlink:href="#m7b00320376" x="250.015993" y="194.286614" style="fill: none; stroke: #000000; stroke-width: 0.8"/>
    </g>
    <g>
     <use xlink:href="#m7b00320376" x="183.759232" y="194.286614" style="fill: none; stroke: #000000; stroke-width: 0.8"/>
    </g>
    <g>
     <use xlink:href="#m7b00320376" x="117.50247" y="194.286614" style="fill: none; stroke: #000000; stroke-width: 0.8"/>
    </g>
    <g>
     <use xlink:href="#m7b00320376" x="51.245709" y="194.286614" style="fill: none; stroke: #000000; stroke-width: 0.8"/>
    </g>
    <g id="text_1">
     <!-- $\mathdefault{120}$ -->
     <g transform="translate(376.551932 205.29027) scale(0.08 -0.08)">
      <defs>
       <path id="NimbusRomNo9L-Regu-31" d="M 1862 4352 
L 710 3776 
L 710 3686 
C 787 3718 858 3743 883 3756 
C 998 3801 1107 3826 1171 3826 
C 1306 3826 1363 3731 1363 3525 
L 1363 599 
C 1363 386 1312 238 1210 179 
C 1114 121 1024 102 755 96 
L 755 0 
L 2522 0 
L 2522 96 
C 2016 102 1914 167 1914 477 
L 1914 4339 
L 1862 4352 
z
" transform="scale(0.015625)"/>
       <path id="NimbusRomNo9L-Regu-32" d="M 3040 879 
L 2957 912 
C 2720 544 2637 486 2349 486 
L 819 486 
L 1894 1621 
C 2464 2221 2714 2711 2714 3214 
C 2714 3858 2195 4352 1530 4352 
C 1178 4352 845 4211 608 3955 
C 403 3736 307 3530 198 3072 
L 333 3039 
C 589 3671 819 3878 1261 3878 
C 1798 3878 2163 3510 2163 2969 
C 2163 2466 1869 1866 1331 1292 
L 192 76 
L 192 0 
L 2688 0 
L 3040 879 
z
" transform="scale(0.015625)"/>
       <path id="NimbusRomNo9L-Regu-30" d="M 1626 4352 
C 1274 4352 1005 4243 768 4019 
C 397 3661 154 2924 154 2176 
C 154 1478 365 729 666 371 
C 902 89 1229 -64 1600 -64 
C 1926 -64 2202 44 2432 268 
C 2803 620 3046 1363 3046 2137 
C 3046 3449 2464 4352 1626 4352 
z
M 1606 4185 
C 2144 4185 2432 3462 2432 2124 
C 2432 787 2150 102 1600 102 
C 1050 102 768 787 768 2118 
C 768 3475 1056 4185 1606 4185 
z
" transform="scale(0.015625)"/>
      </defs>
      <use xlink:href="#NimbusRomNo9L-Regu-31" transform="scale(0.996264)"/>
      <use xlink:href="#NimbusRomNo9L-Regu-32" transform="translate(49.8132 0) scale(0.996264)"/>
      <use xlink:href="#NimbusRomNo9L-Regu-30" transform="translate(99.626401 0) scale(0.996264)"/>
     </g>
    </g>
    <g id="text_2">
     <!-- $\mathdefault{130}$ -->
     <g transform="translate(310.29517 205.29027) scale(0.08 -0.08)">
      <defs>
       <path id="NimbusRomNo9L-Regu-33" d="M 979 2137 
C 1357 2137 1504 2124 1658 2067 
C 2054 1926 2304 1561 2304 1120 
C 2304 582 1939 166 1466 166 
C 1293 166 1165 211 928 364 
C 736 480 627 524 518 524 
C 371 524 275 435 275 300 
C 275 76 550 -64 998 -64 
C 1491 -64 1997 102 2298 364 
C 2598 627 2765 998 2765 1427 
C 2765 1753 2662 2054 2477 2252 
C 2349 2393 2227 2470 1946 2592 
C 2387 2892 2547 3129 2547 3475 
C 2547 3993 2138 4352 1549 4352 
C 1229 4352 947 4243 717 4038 
C 525 3865 429 3699 288 3315 
L 384 3289 
C 646 3757 934 3967 1338 3967 
C 1754 3967 2042 3686 2042 3283 
C 2042 3052 1946 2822 1786 2662 
C 1594 2470 1414 2374 979 2220 
L 979 2137 
z
" transform="scale(0.015625)"/>
      </defs>
      <use xlink:href="#NimbusRomNo9L-Regu-31" transform="scale(0.996264)"/>
      <use xlink:href="#NimbusRomNo9L-Regu-33" transform="translate(49.8132 0) scale(0.996264)"/>
      <use xlink:href="#NimbusRomNo9L-Regu-30" transform="translate(99.626401 0) scale(0.996264)"/>
     </g>
    </g>
    <g id="text_3">
     <!-- $\mathdefault{140}$ -->
     <g transform="translate(244.038409 205.29027) scale(0.08 -0.08)">
      <defs>
       <path id="NimbusRomNo9L-Regu-34" d="M 3021 1497 
L 2368 1497 
L 2368 4352 
L 2086 4352 
L 77 1497 
L 77 1088 
L 1875 1088 
L 1875 0 
L 2368 0 
L 2368 1088 
L 3021 1088 
L 3021 1497 
z
M 1869 1497 
L 333 1497 
L 1869 3697 
L 1869 1497 
z
" transform="scale(0.015625)"/>
      </defs>
      <use xlink:href="#NimbusRomNo9L-Regu-31" transform="scale(0.996264)"/>
      <use xlink:href="#NimbusRomNo9L-Regu-34" transform="translate(49.8132 0) scale(0.996264)"/>
      <use xlink:href="#NimbusRomNo9L-Regu-30" transform="translate(99.626401 0) scale(0.996264)"/>
     </g>
    </g>
    <g id="text_4">
     <!-- $\mathdefault{150}$ -->
     <g transform="translate(177.781648 205.29027) scale(0.08 -0.08)">
      <defs>
       <path id="NimbusRomNo9L-Regu-35" d="M 1158 3718 
L 2413 3718 
C 2515 3718 2541 3731 2560 3775 
L 2803 4345 
L 2746 4390 
C 2650 4256 2586 4224 2451 4224 
L 1114 4224 
L 416 2717 
C 410 2705 410 2698 410 2686 
C 410 2654 435 2635 486 2635 
C 691 2635 947 2591 1210 2508 
C 1946 2274 2285 1882 2285 1255 
C 2285 647 1894 172 1395 172 
C 1267 172 1158 217 966 356 
C 762 502 614 565 480 565 
C 294 565 205 489 205 331 
C 205 89 506 -64 986 -64 
C 1523 -64 1984 108 2304 432 
C 2598 717 2733 1078 2733 1559 
C 2733 2015 2611 2306 2291 2622 
C 2010 2901 1645 3047 890 3180 
L 1158 3718 
z
" transform="scale(0.015625)"/>
      </defs>
      <use xlink:href="#NimbusRomNo9L-Regu-31" transform="scale(0.996264)"/>
      <use xlink:href="#NimbusRomNo9L-Regu-35" transform="translate(49.8132 0) scale(0.996264)"/>
      <use xlink:href="#NimbusRomNo9L-Regu-30" transform="translate(99.626401 0) scale(0.996264)"/>
     </g>
    </g>
    <g id="text_5">
     <!-- $\mathdefault{160}$ -->
     <g transform="translate(111.524886 205.29027) scale(0.08 -0.08)">
      <defs>
       <path id="NimbusRomNo9L-Regu-36" d="M 2854 4390 
C 2125 4326 1754 4204 1286 3878 
C 595 3385 218 2655 218 1801 
C 218 1248 390 688 666 369 
C 909 89 1254 -64 1651 -64 
C 2445 -64 2995 541 2995 1420 
C 2995 2234 2528 2752 1792 2752 
C 1510 2752 1376 2707 973 2463 
C 1146 3430 1862 4121 2867 4288 
L 2854 4390 
z
M 1549 2457 
C 2099 2457 2419 1999 2419 1203 
C 2419 503 2170 115 1722 115 
C 1158 115 813 713 813 1700 
C 813 2024 864 2203 992 2298 
C 1126 2400 1325 2457 1549 2457 
z
" transform="scale(0.015625)"/>
      </defs>
      <use xlink:href="#NimbusRomNo9L-Regu-31" transform="scale(0.996264)"/>
      <use xlink:href="#NimbusRomNo9L-Regu-36" transform="translate(49.8132 0) scale(0.996264)"/>
      <use xlink:href="#NimbusRomNo9L-Regu-30" transform="translate(99.626401 0) scale(0.996264)"/>
     </g>
    </g>
    <g id="text_6">
     <!-- $\mathdefault{170}$ -->
     <g transform="translate(45.268125 205.29027) scale(0.08 -0.08)">
      <defs>
       <path id="NimbusRomNo9L-Regu-37" d="M 2874 4224 
L 506 4224 
L 128 3283 
L 237 3232 
C 512 3667 627 3750 979 3750 
L 2368 3750 
L 1101 -64 
L 1517 -64 
L 2874 4121 
L 2874 4224 
z
" transform="scale(0.015625)"/>
      </defs>
      <use xlink:href="#NimbusRomNo9L-Regu-31" transform="scale(0.996264)"/>
      <use xlink:href="#NimbusRomNo9L-Regu-37" transform="translate(49.8132 0) scale(0.996264)"/>
      <use xlink:href="#NimbusRomNo9L-Regu-30" transform="translate(99.626401 0) scale(0.996264)"/>
     </g>
    </g>
    <g id="patch_6">
     <path d="M 34.681519 194.286614 
L 415.657896 194.286614 
" style="fill: none; stroke: #000000; stroke-width: 0.8; stroke-linecap: square"/>
    </g>
    <g id="text_7">
     <!-- Annualized photocatalysis cost in € a$^{-1}$ kW$^{-1}$ -->
     <g transform="translate(131.442396 218.960759) scale(0.1 -0.1)">
      <defs>
       <path id="NimbusRomNo9L-Regu-41" d="M 4518 121 
C 4230 141 4166 205 3942 686 
L 2349 4288 
L 2221 4288 
L 890 1187 
C 480 238 403 134 96 121 
L 96 0 
L 1363 0 
L 1363 121 
C 1056 121 928 205 928 387 
C 928 465 947 556 979 641 
L 1274 1401 
L 2950 1401 
L 3213 777 
C 3290 602 3334 433 3334 342 
C 3334 179 3226 128 2886 121 
L 2886 0 
L 4518 0 
L 4518 121 
z
M 1382 1664 
L 2118 3392 
L 2861 1664 
L 1382 1664 
z
" transform="scale(0.015625)"/>
       <path id="NimbusRomNo9L-Regu-6e" d="M 102 2547 
C 141 2566 205 2572 275 2572 
C 454 2572 512 2476 512 2163 
L 512 576 
C 512 211 442 121 115 96 
L 115 0 
L 1472 0 
L 1472 96 
C 1146 121 1050 198 1050 428 
L 1050 2227 
C 1357 2515 1498 2591 1709 2591 
C 2022 2591 2176 2393 2176 1971 
L 2176 633 
C 2176 230 2093 121 1773 96 
L 1773 0 
L 3104 0 
L 3104 96 
C 2790 128 2714 204 2714 518 
L 2714 1984 
C 2714 2585 2432 2944 1958 2944 
C 1664 2944 1466 2835 1030 2425 
L 1030 2931 
L 986 2944 
C 672 2828 454 2758 102 2655 
L 102 2547 
z
" transform="scale(0.015625)"/>
       <path id="NimbusRomNo9L-Regu-75" d="M 3066 319 
L 3034 319 
C 2739 319 2669 390 2669 684 
L 2669 2880 
L 1658 2880 
L 1658 2771 
C 2054 2752 2131 2688 2131 2368 
L 2131 864 
C 2131 684 2099 595 2010 524 
C 1837 384 1638 307 1446 307 
C 1197 307 992 524 992 793 
L 992 2880 
L 58 2880 
L 58 2790 
C 365 2771 454 2675 454 2380 
L 454 768 
C 454 262 762 -64 1229 -64 
C 1466 -64 1715 38 1888 211 
L 2163 486 
L 2163 -45 
L 2189 -64 
C 2509 64 2739 134 3066 224 
L 3066 319 
z
" transform="scale(0.015625)"/>
       <path id="NimbusRomNo9L-Regu-61" d="M 2829 422 
C 2720 332 2643 300 2547 300 
C 2400 300 2355 390 2355 672 
L 2355 1920 
C 2355 2252 2323 2438 2227 2592 
C 2086 2822 1811 2944 1434 2944 
C 832 2944 358 2630 358 2227 
C 358 2080 486 1952 634 1952 
C 787 1952 922 2080 922 2220 
C 922 2246 915 2278 909 2323 
C 896 2380 890 2432 890 2476 
C 890 2649 1094 2790 1350 2790 
C 1664 2790 1837 2604 1837 2259 
L 1837 1868 
C 851 1472 742 1420 467 1177 
C 326 1049 237 832 237 620 
C 237 217 518 -64 909 -64 
C 1190 -64 1453 70 1843 403 
C 1875 70 1990 -64 2253 -64 
C 2470 -64 2605 12 2829 256 
L 2829 422 
z
M 1837 787 
C 1837 588 1805 531 1670 454 
C 1517 364 1338 307 1203 307 
C 979 307 800 524 800 800 
L 800 825 
C 800 1203 1062 1433 1837 1715 
L 1837 787 
z
" transform="scale(0.015625)"/>
       <path id="NimbusRomNo9L-Regu-6c" d="M 122 3987 
L 160 3987 
C 230 3993 307 4000 358 4000 
C 563 4000 627 3910 627 3609 
L 627 556 
C 627 211 538 128 134 96 
L 134 0 
L 1645 0 
L 1645 96 
C 1242 121 1165 185 1165 537 
L 1165 4358 
L 1139 4371 
C 806 4262 563 4198 122 4089 
L 122 3987 
z
" transform="scale(0.015625)"/>
       <path id="NimbusRomNo9L-Regu-69" d="M 1120 2944 
L 128 2592 
L 128 2496 
L 179 2502 
C 256 2515 339 2521 397 2521 
C 550 2521 608 2419 608 2137 
L 608 652 
C 608 192 544 121 102 96 
L 102 0 
L 1619 0 
L 1619 96 
C 1197 128 1146 192 1146 652 
L 1146 2924 
L 1120 2944 
z
M 819 4352 
C 646 4352 499 4204 499 4025 
C 499 3846 640 3699 819 3699 
C 1005 3699 1152 3839 1152 4025 
C 1152 4204 1005 4352 819 4352 
z
" transform="scale(0.015625)"/>
       <path id="NimbusRomNo9L-Regu-7a" d="M 2675 864 
L 2560 889 
C 2496 569 2458 467 2374 358 
C 2285 249 2067 192 1741 192 
L 858 192 
L 2579 2783 
L 2579 2880 
L 358 2880 
L 339 2124 
L 454 2124 
C 512 2592 608 2687 992 2687 
L 1875 2687 
L 173 96 
L 173 0 
L 2586 0 
L 2675 864 
z
" transform="scale(0.015625)"/>
       <path id="NimbusRomNo9L-Regu-65" d="M 2611 1052 
C 2304 564 2029 377 1619 377 
C 1254 377 979 564 794 930 
C 678 1174 634 1386 621 1779 
L 2592 1779 
C 2541 2193 2477 2377 2317 2580 
C 2125 2809 1830 2944 1498 2944 
C 1178 2944 877 2828 634 2612 
C 333 2351 160 1900 160 1374 
C 160 486 621 -64 1357 -64 
C 1965 -64 2445 313 2714 1007 
L 2611 1052 
z
M 634 1984 
C 704 2478 922 2713 1312 2713 
C 1702 2713 1856 2535 1939 1984 
L 634 1984 
z
" transform="scale(0.015625)"/>
       <path id="NimbusRomNo9L-Regu-64" d="M 2202 -64 
L 3142 268 
L 3142 371 
C 3027 364 3014 364 2995 364 
C 2765 364 2714 435 2714 729 
L 2714 4358 
L 2682 4371 
C 2374 4262 2150 4198 1741 4089 
L 1741 3987 
C 1792 3993 1830 3993 1882 3993 
C 2118 3993 2176 3929 2176 3667 
L 2176 2668 
C 1933 2873 1760 2944 1504 2944 
C 768 2944 173 2220 173 1312 
C 173 492 653 -64 1357 -64 
C 1715 -64 1958 64 2176 364 
L 2176 -45 
L 2202 -64 
z
M 2176 652 
C 2176 608 2131 531 2067 460 
C 1952 332 1792 268 1606 268 
C 1075 268 723 780 723 1568 
C 723 2291 1037 2764 1523 2764 
C 1862 2764 2176 2464 2176 2124 
L 2176 652 
z
" transform="scale(0.015625)"/>
       <path id="NimbusRomNo9L-Regu-70" d="M 58 2515 
C 115 2521 160 2521 218 2521 
C 435 2521 480 2457 480 2157 
L 480 -839 
C 480 -1172 410 -1242 32 -1280 
L 32 -1389 
L 1581 -1389 
L 1581 -1280 
C 1101 -1274 1018 -1203 1018 -798 
L 1018 211 
C 1242 0 1395 -64 1664 -64 
C 2419 -64 3008 652 3008 1580 
C 3008 2374 2560 2944 1939 2944 
C 1581 2944 1299 2783 1018 2438 
L 1018 2931 
L 979 2944 
C 634 2809 410 2726 58 2617 
L 58 2515 
z
M 1018 2137 
C 1018 2329 1376 2559 1670 2559 
C 2144 2559 2458 2073 2458 1331 
C 2458 620 2144 140 1683 140 
C 1382 140 1018 371 1018 563 
L 1018 2137 
z
" transform="scale(0.015625)"/>
       <path id="NimbusRomNo9L-Regu-68" d="M 1005 2195 
C 1274 2489 1466 2598 1715 2598 
C 2035 2598 2195 2368 2195 1920 
L 2195 652 
C 2195 217 2131 134 1760 96 
L 1760 0 
L 3117 0 
L 3117 96 
C 2771 160 2733 211 2733 652 
L 2733 1926 
C 2733 2598 2464 2944 1946 2944 
C 1568 2944 1299 2790 1005 2406 
L 1005 4352 
L 973 4371 
C 755 4294 595 4243 237 4140 
L 64 4089 
L 64 3987 
C 90 3993 109 3993 141 3993 
C 416 3993 467 3942 467 3667 
L 467 652 
C 467 204 429 147 58 96 
L 58 0 
L 1440 0 
L 1440 96 
C 1069 134 1005 211 1005 652 
L 1005 2195 
z
" transform="scale(0.015625)"/>
       <path id="NimbusRomNo9L-Regu-6f" d="M 1600 2944 
C 768 2944 186 2329 186 1446 
C 186 582 781 -64 1587 -64 
C 2394 -64 3008 614 3008 1497 
C 3008 2336 2419 2944 1600 2944 
z
M 1517 2764 
C 2054 2764 2432 2150 2432 1273 
C 2432 550 2144 115 1664 115 
C 1414 115 1178 268 1043 524 
C 864 857 762 1305 762 1760 
C 762 2368 1062 2764 1517 2764 
z
" transform="scale(0.015625)"/>
       <path id="NimbusRomNo9L-Regu-74" d="M 1632 2880 
L 986 2880 
L 986 3622 
C 986 3686 979 3705 941 3705 
C 896 3648 858 3590 813 3526 
C 570 3174 294 2867 192 2841 
C 122 2796 83 2751 83 2719 
C 83 2700 90 2687 109 2675 
L 448 2675 
L 448 748 
C 448 211 640 -64 1018 -64 
C 1331 -64 1574 89 1786 422 
L 1702 492 
C 1568 332 1459 268 1318 268 
C 1082 268 986 441 986 844 
L 986 2675 
L 1632 2675 
L 1632 2880 
z
" transform="scale(0.015625)"/>
       <path id="NimbusRomNo9L-Regu-63" d="M 2547 998 
C 2240 550 2010 396 1645 396 
C 1062 396 653 908 653 1644 
C 653 2303 1005 2758 1523 2758 
C 1754 2758 1837 2687 1901 2451 
L 1939 2310 
C 1990 2131 2106 2015 2240 2015 
C 2406 2015 2547 2137 2547 2284 
C 2547 2643 2099 2944 1562 2944 
C 1248 2944 922 2815 659 2585 
C 339 2303 160 1868 160 1363 
C 160 531 666 -64 1376 -64 
C 1664 -64 1920 38 2150 236 
C 2323 390 2445 563 2637 940 
L 2547 998 
z
" transform="scale(0.015625)"/>
       <path id="NimbusRomNo9L-Regu-79" d="M 3040 2880 
L 2176 2880 
L 2176 2783 
C 2381 2783 2483 2726 2483 2623 
C 2483 2597 2477 2559 2458 2514 
L 1837 741 
L 1101 2366 
C 1062 2456 1037 2540 1037 2610 
C 1037 2726 1133 2771 1408 2783 
L 1408 2880 
L 90 2880 
L 90 2790 
C 256 2764 365 2694 416 2585 
L 1146 1005 
L 1165 953 
L 1261 761 
C 1440 439 1542 208 1542 112 
C 1542 15 1395 -389 1286 -582 
C 1197 -749 1056 -871 966 -871 
C 928 -871 870 -858 806 -826 
C 685 -781 576 -755 467 -755 
C 320 -755 192 -884 192 -1037 
C 192 -1248 397 -1408 666 -1408 
C 1094 -1408 1402 -1050 1747 -126 
L 2733 2495 
C 2816 2700 2886 2764 3040 2783 
L 3040 2880 
z
" transform="scale(0.015625)"/>
       <path id="NimbusRomNo9L-Regu-73" d="M 2016 2009 
L 1990 2880 
L 1920 2880 
L 1907 2867 
C 1850 2822 1843 2815 1818 2815 
C 1779 2815 1715 2828 1645 2860 
C 1504 2918 1363 2944 1197 2944 
C 691 2944 326 2617 326 2155 
C 326 1796 531 1539 1075 1231 
L 1446 1019 
C 1670 891 1779 737 1779 538 
C 1779 256 1574 76 1248 76 
C 1030 76 832 160 710 301 
C 576 461 518 609 435 974 
L 333 974 
L 333 -26 
L 416 -26 
C 461 38 486 51 563 51 
C 621 51 710 38 858 0 
C 1037 -39 1210 -64 1325 -64 
C 1818 -64 2227 307 2227 756 
C 2227 1077 2074 1289 1690 1520 
L 998 1930 
C 819 2033 723 2193 723 2366 
C 723 2623 922 2803 1216 2803 
C 1581 2803 1773 2585 1920 2014 
L 2016 2009 
z
" transform="scale(0.015625)"/>
       <path id="NimbusRomNo9L-Regu-43" d="M 3968 2905 
L 3910 4352 
L 3776 4352 
C 3738 4217 3635 4140 3507 4140 
C 3450 4140 3354 4159 3258 4198 
C 2944 4300 2624 4352 2323 4352 
C 1798 4352 1267 4153 870 3801 
C 422 3405 179 2809 179 2105 
C 179 1510 371 960 698 595 
C 1082 179 1670 -64 2304 -64 
C 3027 -64 3661 230 4051 748 
L 3936 864 
C 3462 409 3040 217 2509 217 
C 2106 217 1747 345 1472 588 
C 1120 902 922 1478 922 2188 
C 922 3347 1517 4095 2445 4095 
C 2810 4095 3142 3961 3398 3705 
C 3603 3501 3699 3321 3821 2905 
L 3968 2905 
z
" transform="scale(0.015625)"/>
       <path id="CMSY10-0" d="M 4218 1472 
C 4326 1472 4442 1472 4442 1600 
C 4442 1728 4326 1728 4218 1728 
L 755 1728 
C 646 1728 531 1728 531 1600 
C 531 1472 646 1472 755 1472 
L 4218 1472 
z
" transform="scale(0.015625)"/>
       <path id="NimbusRomNo9L-Regu-6b" d="M 45 3987 
C 128 3993 186 4000 250 4000 
C 461 4000 525 3916 525 3609 
L 525 524 
C 525 192 506 172 45 96 
L 45 0 
L 1542 0 
L 1542 96 
L 1414 102 
C 1158 115 1062 204 1062 428 
L 1062 1606 
L 1958 409 
L 1978 384 
C 1990 364 2003 345 2022 326 
C 2074 262 2093 224 2093 192 
C 2093 134 2035 96 1958 96 
L 1837 96 
L 1837 0 
L 3232 0 
L 3232 96 
C 2950 115 2752 236 2483 563 
L 1504 1804 
L 1690 1977 
C 2144 2400 2541 2694 2726 2745 
C 2822 2771 2912 2783 3021 2783 
L 3072 2783 
L 3072 2880 
L 1766 2880 
L 1766 2790 
C 2016 2783 2086 2758 2086 2668 
C 2086 2617 2029 2528 1939 2451 
L 1062 1670 
L 1062 4358 
L 1037 4371 
C 794 4294 608 4243 237 4140 
L 45 4089 
L 45 3987 
z
" transform="scale(0.015625)"/>
       <path id="NimbusRomNo9L-Regu-57" d="M 5965 4224 
L 4698 4224 
L 4698 4102 
C 5024 4070 5139 4000 5139 3828 
C 5139 3694 5101 3529 5037 3350 
L 4237 1191 
L 3392 3363 
C 3379 3395 3322 3535 3315 3554 
C 3258 3688 3219 3809 3219 3879 
C 3219 4032 3366 4095 3712 4102 
L 3712 4224 
L 2003 4224 
L 2003 4102 
C 2368 4095 2432 4038 2650 3529 
L 2861 3007 
L 2176 1210 
L 1254 3605 
C 1210 3720 1184 3828 1184 3898 
C 1184 4038 1274 4083 1600 4102 
L 1600 4224 
L 32 4224 
L 32 4102 
C 358 4070 454 3956 691 3357 
L 1926 -64 
L 2022 -64 
L 3008 2631 
L 4032 -64 
L 4128 -64 
C 4672 1599 4736 1777 5434 3650 
C 5555 3981 5626 4038 5965 4102 
L 5965 4224 
z
" transform="scale(0.015625)"/>
      </defs>
      <use xlink:href="#NimbusRomNo9L-Regu-41" transform="scale(0.996264)"/>
      <use xlink:href="#NimbusRomNo9L-Regu-6e" transform="translate(71.929985 0) scale(0.996264)"/>
      <use xlink:href="#NimbusRomNo9L-Regu-6e" transform="translate(121.743185 0) scale(0.996264)"/>
      <use xlink:href="#NimbusRomNo9L-Regu-75" transform="translate(171.556386 0) scale(0.996264)"/>
      <use xlink:href="#NimbusRomNo9L-Regu-61" transform="translate(221.369586 0) scale(0.996264)"/>
      <use xlink:href="#NimbusRomNo9L-Regu-6c" transform="translate(265.603155 0) scale(0.996264)"/>
      <use xlink:href="#NimbusRomNo9L-Regu-69" transform="translate(293.298325 0) scale(0.996264)"/>
      <use xlink:href="#NimbusRomNo9L-Regu-7a" transform="translate(320.993494 0) scale(0.996264)"/>
      <use xlink:href="#NimbusRomNo9L-Regu-65" transform="translate(365.227063 0) scale(0.996264)"/>
      <use xlink:href="#NimbusRomNo9L-Regu-64" transform="translate(409.460632 0) scale(0.996264)"/>
      <use xlink:href="#NimbusRomNo9L-Regu-70" transform="translate(484.180432 0) scale(0.996264)"/>
      <use xlink:href="#NimbusRomNo9L-Regu-68" transform="translate(533.993633 0) scale(0.996264)"/>
      <use xlink:href="#NimbusRomNo9L-Regu-6f" transform="translate(583.806833 0) scale(0.996264)"/>
      <use xlink:href="#NimbusRomNo9L-Regu-74" transform="translate(633.620034 0) scale(0.996264)"/>
      <use xlink:href="#NimbusRomNo9L-Regu-6f" transform="translate(661.315203 0) scale(0.996264)"/>
      <use xlink:href="#NimbusRomNo9L-Regu-63" transform="translate(711.128404 0) scale(0.996264)"/>
      <use xlink:href="#NimbusRomNo9L-Regu-61" transform="translate(755.361973 0) scale(0.996264)"/>
      <use xlink:href="#NimbusRomNo9L-Regu-74" transform="translate(799.595541 0) scale(0.996264)"/>
      <use xlink:href="#NimbusRomNo9L-Regu-61" transform="translate(827.290711 0) scale(0.996264)"/>
      <use xlink:href="#NimbusRomNo9L-Regu-6c" transform="translate(871.52428 0) scale(0.996264)"/>
      <use xlink:href="#NimbusRomNo9L-Regu-79" transform="translate(899.219449 0) scale(0.996264)"/>
      <use xlink:href="#NimbusRomNo9L-Regu-73" transform="translate(949.03265 0) scale(0.996264)"/>
      <use xlink:href="#NimbusRomNo9L-Regu-69" transform="translate(987.786356 0) scale(0.996264)"/>
      <use xlink:href="#NimbusRomNo9L-Regu-73" transform="translate(1015.481526 0) scale(0.996264)"/>
      <use xlink:href="#NimbusRomNo9L-Regu-63" transform="translate(1079.141832 0) scale(0.996264)"/>
      <use xlink:href="#NimbusRomNo9L-Regu-6f" transform="translate(1123.375401 0) scale(0.996264)"/>
      <use xlink:href="#NimbusRomNo9L-Regu-73" transform="translate(1173.188601 0) scale(0.996264)"/>
      <use xlink:href="#NimbusRomNo9L-Regu-74" transform="translate(1211.942307 0) scale(0.996264)"/>
      <use xlink:href="#NimbusRomNo9L-Regu-69" transform="translate(1264.544077 0) scale(0.996264)"/>
      <use xlink:href="#NimbusRomNo9L-Regu-6e" transform="translate(1292.239247 0) scale(0.996264)"/>
      <use xlink:href="#NimbusRomNo9L-Regu-43" transform="translate(1376.921718 0) scale(0.996264)"/>
      <use xlink:href="#NimbusRomNo9L-Regu-61" transform="translate(1468.278258 0) scale(0.996264)"/>
      <use xlink:href="#CMSY10-0" transform="translate(1512.511827 36.163231) scale(0.737241)"/>
      <use xlink:href="#NimbusRomNo9L-Regu-31" transform="translate(1569.794697 36.163231) scale(0.737241)"/>
      <use xlink:href="#NimbusRomNo9L-Regu-6b" transform="translate(1632.061471 0) scale(0.996264)"/>
      <use xlink:href="#NimbusRomNo9L-Regu-57" transform="translate(1681.874672 0) scale(0.996264)"/>
      <use xlink:href="#CMSY10-0" transform="translate(1775.921441 36.163231) scale(0.737241)"/>
      <use xlink:href="#NimbusRomNo9L-Regu-31" transform="translate(1833.204311 36.163231) scale(0.737241)"/>
      <path d="M 1371.940383 40.447671 
L 1421.753583 40.447671 
L 1421.753583 45.429006 
L 1371.940383 45.429006 
L 1371.940383 40.447671 
z
"/>
      <path d="M 1371.940383 25.503757 
L 1418.36538 25.503757 
L 1418.36538 30.485092 
L 1371.940383 30.485092 
L 1371.940383 25.503757 
z
"/>
     </g>
    </g>
   </g>
   <g id="mpl_toolkits.axisartist.axis_artist_2">
    <defs>
     <path id="m77342d72e6" d="M 0 0 
L -0 3.5 
" style="stroke: #000000; stroke-width: 0.8"/>
    </defs>
    <g>
     <use xlink:href="#m77342d72e6" x="382.529516" y="7.2" style="fill: none; stroke: #000000; stroke-width: 0.8"/>
    </g>
    <g>
     <use xlink:href="#m77342d72e6" x="316.272754" y="7.2" style="fill: none; stroke: #000000; stroke-width: 0.8"/>
    </g>
    <g>
     <use xlink:href="#m77342d72e6" x="250.015993" y="7.2" style="fill: none; stroke: #000000; stroke-width: 0.8"/>
    </g>
    <g>
     <use xlink:href="#m77342d72e6" x="183.759232" y="7.2" style="fill: none; stroke: #000000; stroke-width: 0.8"/>
    </g>
    <g>
     <use xlink:href="#m77342d72e6" x="117.50247" y="7.2" style="fill: none; stroke: #000000; stroke-width: 0.8"/>
    </g>
    <g>
     <use xlink:href="#m77342d72e6" x="51.245709" y="7.2" style="fill: none; stroke: #000000; stroke-width: 0.8"/>
    </g>
    <g id="patch_7">
     <path d="M 34.681519 7.2 
L 415.657896 7.2 
" style="fill: none; stroke: #000000; stroke-width: 0.8; stroke-linecap: square"/>
    </g>
   </g>
   <g id="mpl_toolkits.axisartist.axis_artist_3">
    <defs>
     <path id="m255d2fc5f4" d="M 0 0 
L 3.5 0 
" style="stroke: #000000; stroke-width: 0.8"/>
    </defs>
    <g>
     <use xlink:href="#m255d2fc5f4" x="34.681519" y="190.945782" style="fill: none; stroke: #000000; stroke-width: 0.8"/>
    </g>
    <g>
     <use xlink:href="#m255d2fc5f4" x="34.681519" y="157.537458" style="fill: none; stroke: #000000; stroke-width: 0.8"/>
    </g>
    <g>
     <use xlink:href="#m255d2fc5f4" x="34.681519" y="124.129134" style="fill: none; stroke: #000000; stroke-width: 0.8"/>
    </g>
    <g>
     <use xlink:href="#m255d2fc5f4" x="34.681519" y="90.72081" style="fill: none; stroke: #000000; stroke-width: 0.8"/>
    </g>
    <g>
     <use xlink:href="#m255d2fc5f4" x="34.681519" y="57.312486" style="fill: none; stroke: #000000; stroke-width: 0.8"/>
    </g>
    <g>
     <use xlink:href="#m255d2fc5f4" x="34.681519" y="23.904162" style="fill: none; stroke: #000000; stroke-width: 0.8"/>
    </g>
    <g id="text_8">
     <!-- $\mathdefault{0}$ -->
     <g transform="translate(25.096462 192.784878) scale(0.08 -0.08)">
      <use xlink:href="#NimbusRomNo9L-Regu-30" transform="scale(0.996264)"/>
     </g>
    </g>
    <g id="text_9">
     <!-- $\mathdefault{10}$ -->
     <g transform="translate(21.111406 159.376554) scale(0.08 -0.08)">
      <use xlink:href="#NimbusRomNo9L-Regu-31" transform="scale(0.996264)"/>
      <use xlink:href="#NimbusRomNo9L-Regu-30" transform="translate(49.8132 0) scale(0.996264)"/>
     </g>
    </g>
    <g id="text_10">
     <!-- $\mathdefault{20}$ -->
     <g transform="translate(21.111406 125.96823) scale(0.08 -0.08)">
      <use xlink:href="#NimbusRomNo9L-Regu-32" transform="scale(0.996264)"/>
      <use xlink:href="#NimbusRomNo9L-Regu-30" transform="translate(49.8132 0) scale(0.996264)"/>
     </g>
    </g>
    <g id="text_11">
     <!-- $\mathdefault{30}$ -->
     <g transform="translate(21.111406 92.559906) scale(0.08 -0.08)">
      <use xlink:href="#NimbusRomNo9L-Regu-33" transform="scale(0.996264)"/>
      <use xlink:href="#NimbusRomNo9L-Regu-30" transform="translate(49.8132 0) scale(0.996264)"/>
     </g>
    </g>
    <g id="text_12">
     <!-- $\mathdefault{40}$ -->
     <g transform="translate(21.111406 59.151582) scale(0.08 -0.08)">
      <use xlink:href="#NimbusRomNo9L-Regu-34" transform="scale(0.996264)"/>
      <use xlink:href="#NimbusRomNo9L-Regu-30" transform="translate(49.8132 0) scale(0.996264)"/>
     </g>
    </g>
    <g id="text_13">
     <!-- $\mathdefault{50}$ -->
     <g transform="translate(21.111406 25.743258) scale(0.08 -0.08)">
      <use xlink:href="#NimbusRomNo9L-Regu-35" transform="scale(0.996264)"/>
      <use xlink:href="#NimbusRomNo9L-Regu-30" transform="translate(49.8132 0) scale(0.996264)"/>
     </g>
    </g>
    <g id="patch_8">
     <path d="M 34.681519 194.286614 
L 34.681519 7.2 
" style="fill: none; stroke: #000000; stroke-width: 0.8; stroke-linecap: square"/>
    </g>
    <g id="text_14">
     <!-- Photocatalysis market share in \% -->
     <g transform="translate(13.954578 166.824665) rotate(-90) scale(0.1 -0.1)">
      <defs>
       <path id="NimbusRomNo9L-Regu-50" d="M 1293 1875 
C 1459 1862 1568 1855 1734 1855 
C 2234 1855 2579 1919 2854 2073 
C 3238 2276 3469 2661 3469 3077 
C 3469 3343 3379 3583 3206 3766 
C 2950 4044 2394 4224 1792 4224 
L 102 4224 
L 102 4102 
C 576 4051 640 3987 640 3528 
L 640 765 
C 640 230 589 166 102 121 
L 102 0 
L 1894 0 
L 1894 121 
C 1389 140 1293 230 1293 695 
L 1293 1875 
z
M 1293 3772 
C 1293 3942 1338 3987 1510 3987 
C 2374 3987 2771 3690 2771 3040 
C 2771 2427 2394 2112 1658 2112 
C 1530 2112 1440 2118 1293 2130 
L 1293 3772 
z
" transform="scale(0.015625)"/>
       <path id="NimbusRomNo9L-Regu-6d" d="M 122 2547 
C 205 2566 256 2572 326 2572 
C 493 2572 550 2470 550 2163 
L 550 544 
C 550 198 461 102 102 96 
L 102 0 
L 1523 0 
L 1523 96 
C 1184 108 1088 179 1088 428 
L 1088 2233 
C 1088 2246 1139 2310 1184 2355 
C 1344 2502 1619 2611 1843 2611 
C 2125 2611 2266 2387 2266 1939 
L 2266 550 
C 2266 192 2195 121 1830 96 
L 1830 0 
L 3264 0 
L 3264 96 
C 2899 102 2803 211 2803 608 
L 2803 2220 
C 2995 2496 3206 2611 3501 2611 
C 3866 2611 3981 2438 3981 1907 
L 3981 556 
C 3981 192 3930 140 3558 96 
L 3558 0 
L 4960 0 
L 4960 96 
L 4794 108 
C 4602 121 4518 236 4518 486 
L 4518 1804 
C 4518 2560 4269 2944 3776 2944 
C 3405 2944 3078 2777 2733 2406 
C 2618 2771 2400 2944 2054 2944 
C 1773 2944 1594 2854 1062 2451 
L 1062 2931 
L 1018 2944 
C 691 2822 474 2751 122 2655 
L 122 2547 
z
" transform="scale(0.015625)"/>
       <path id="NimbusRomNo9L-Regu-72" d="M 45 2496 
C 134 2515 192 2521 269 2521 
C 429 2521 486 2419 486 2137 
L 486 537 
C 486 217 442 172 32 96 
L 32 0 
L 1568 0 
L 1568 96 
C 1133 115 1024 211 1024 576 
L 1024 2016 
C 1024 2220 1299 2540 1472 2540 
C 1510 2540 1568 2508 1638 2444 
C 1741 2355 1811 2316 1894 2316 
C 2048 2316 2144 2425 2144 2604 
C 2144 2815 2010 2944 1792 2944 
C 1523 2944 1338 2796 1024 2342 
L 1024 2931 
L 992 2944 
C 653 2803 422 2720 45 2598 
L 45 2496 
z
" transform="scale(0.015625)"/>
       <path id="NimbusRomNo9L-Regu-25" d="M 4282 2380 
C 3558 2380 2874 1630 2874 827 
C 2874 326 3181 0 3642 0 
C 3930 0 4166 102 4390 326 
C 4730 673 4941 1193 4941 1694 
C 4941 2131 4698 2380 4282 2380 
z
M 4326 2176 
C 4570 2176 4774 1944 4774 1662 
C 4774 1296 4614 859 4371 558 
C 4166 301 3981 192 3750 192 
C 3520 192 3360 358 3360 602 
C 3360 943 3539 1469 3776 1803 
C 3949 2060 4128 2176 4326 2176 
z
M 4058 4352 
L 3808 4352 
C 3462 4017 3206 3904 2810 3904 
C 2554 3904 2406 3950 2253 4084 
C 2086 4191 2003 4224 1805 4224 
C 1075 4224 390 3487 390 2671 
C 390 2221 730 1856 1146 1856 
C 1421 1856 1709 1984 1920 2208 
C 2253 2549 2458 3056 2458 3525 
C 2458 3615 2445 3692 2413 3807 
C 2528 3763 2643 3743 2829 3743 
C 3110 3743 3277 3788 3533 3930 
L 1286 -64 
L 1594 -64 
L 4058 4352 
z
M 2240 3862 
C 2278 3733 2298 3636 2298 3546 
C 2298 2816 1773 2073 1254 2073 
C 1030 2073 877 2235 877 2467 
C 877 2738 1005 3177 1178 3500 
C 1363 3814 1606 4031 1805 4031 
C 1837 4031 1850 4025 1888 3993 
C 1978 3910 2054 3878 2240 3827 
L 2240 3862 
z
" transform="scale(0.015625)"/>
      </defs>
      <use xlink:href="#NimbusRomNo9L-Regu-50" transform="scale(0.996264)"/>
      <use xlink:href="#NimbusRomNo9L-Regu-68" transform="translate(55.391677 0) scale(0.996264)"/>
      <use xlink:href="#NimbusRomNo9L-Regu-6f" transform="translate(105.204877 0) scale(0.996264)"/>
      <use xlink:href="#NimbusRomNo9L-Regu-74" transform="translate(155.018078 0) scale(0.996264)"/>
      <use xlink:href="#NimbusRomNo9L-Regu-6f" transform="translate(182.713248 0) scale(0.996264)"/>
      <use xlink:href="#NimbusRomNo9L-Regu-63" transform="translate(232.526448 0) scale(0.996264)"/>
      <use xlink:href="#NimbusRomNo9L-Regu-61" transform="translate(276.760017 0) scale(0.996264)"/>
      <use xlink:href="#NimbusRomNo9L-Regu-74" transform="translate(320.993585 0) scale(0.996264)"/>
      <use xlink:href="#NimbusRomNo9L-Regu-61" transform="translate(348.688755 0) scale(0.996264)"/>
      <use xlink:href="#NimbusRomNo9L-Regu-6c" transform="translate(392.922324 0) scale(0.996264)"/>
      <use xlink:href="#NimbusRomNo9L-Regu-79" transform="translate(420.617493 0) scale(0.996264)"/>
      <use xlink:href="#NimbusRomNo9L-Regu-73" transform="translate(470.430694 0) scale(0.996264)"/>
      <use xlink:href="#NimbusRomNo9L-Regu-69" transform="translate(509.1844 0) scale(0.996264)"/>
      <use xlink:href="#NimbusRomNo9L-Regu-73" transform="translate(536.87957 0) scale(0.996264)"/>
      <use xlink:href="#NimbusRomNo9L-Regu-6d" transform="translate(600.539876 0) scale(0.996264)"/>
      <use xlink:href="#NimbusRomNo9L-Regu-61" transform="translate(678.048246 0) scale(0.996264)"/>
      <use xlink:href="#NimbusRomNo9L-Regu-72" transform="translate(722.281815 0) scale(0.996264)"/>
      <use xlink:href="#NimbusRomNo9L-Regu-6b" transform="translate(755.457045 0) scale(0.996264)"/>
      <use xlink:href="#NimbusRomNo9L-Regu-65" transform="translate(804.274148 0) scale(0.996264)"/>
      <use xlink:href="#NimbusRomNo9L-Regu-74" transform="translate(848.507717 0) scale(0.996264)"/>
      <use xlink:href="#NimbusRomNo9L-Regu-73" transform="translate(901.109487 0) scale(0.996264)"/>
      <use xlink:href="#NimbusRomNo9L-Regu-68" transform="translate(939.863193 0) scale(0.996264)"/>
      <use xlink:href="#NimbusRomNo9L-Regu-61" transform="translate(989.676394 0) scale(0.996264)"/>
      <use xlink:href="#NimbusRomNo9L-Regu-72" transform="translate(1033.909962 0) scale(0.996264)"/>
      <use xlink:href="#NimbusRomNo9L-Regu-65" transform="translate(1067.085192 0) scale(0.996264)"/>
      <use xlink:href="#NimbusRomNo9L-Regu-69" transform="translate(1136.225361 0) scale(0.996264)"/>
      <use xlink:href="#NimbusRomNo9L-Regu-6e" transform="translate(1163.920531 0) scale(0.996264)"/>
      <use xlink:href="#NimbusRomNo9L-Regu-25" transform="translate(1238.640331 0) scale(0.996264)"/>
     </g>
    </g>
   </g>
   <g id="mpl_toolkits.axisartist.axis_artist_4">
    <defs>
     <path id="m8f2dd5db92" d="M 0 0 
L -3.5 -0 
" style="stroke: #000000; stroke-width: 0.8"/>
    </defs>
    <g>
     <use xlink:href="#m8f2dd5db92" x="415.657896" y="190.945782" style="fill: none; stroke: #000000; stroke-width: 0.8"/>
    </g>
    <g>
     <use xlink:href="#m8f2dd5db92" x="415.657896" y="157.537458" style="fill: none; stroke: #000000; stroke-width: 0.8"/>
    </g>
    <g>
     <use xlink:href="#m8f2dd5db92" x="415.657896" y="124.129134" style="fill: none; stroke: #000000; stroke-width: 0.8"/>
    </g>
    <g>
     <use xlink:href="#m8f2dd5db92" x="415.657896" y="90.72081" style="fill: none; stroke: #000000; stroke-width: 0.8"/>
    </g>
    <g>
     <use xlink:href="#m8f2dd5db92" x="415.657896" y="57.312486" style="fill: none; stroke: #000000; stroke-width: 0.8"/>
    </g>
    <g>
     <use xlink:href="#m8f2dd5db92" x="415.657896" y="23.904162" style="fill: none; stroke: #000000; stroke-width: 0.8"/>
    </g>
    <g id="patch_9">
     <path d="M 415.657896 194.286614 
L 415.657896 7.2 
" style="fill: none; stroke: #000000; stroke-width: 0.8; stroke-linecap: square"/>
    </g>
   </g>
   <g id="text_15">
    <!-- Market entry -->
    <g transform="translate(354.083594 184.892575) scale(0.1 -0.1)">
     <defs>
      <path id="NimbusRomNo9L-Regu-4d" d="M 4314 3656 
L 4314 765 
C 4314 236 4237 153 3731 121 
L 3731 0 
L 5523 0 
L 5523 121 
C 5056 153 4966 242 4966 695 
L 4966 3528 
C 4966 3981 5050 4064 5523 4102 
L 5523 4224 
L 4250 4224 
L 2835 1002 
L 1357 4224 
L 90 4224 
L 90 4102 
C 614 4070 698 3994 698 3528 
L 698 938 
C 698 281 608 159 77 121 
L 77 0 
L 1581 0 
L 1581 121 
C 1088 147 979 293 979 938 
L 979 3509 
L 2586 0 
L 2675 0 
L 4314 3656 
z
" transform="scale(0.015625)"/>
     </defs>
     <use xlink:href="#NimbusRomNo9L-Regu-4d" transform="scale(0.996264)"/>
     <use xlink:href="#NimbusRomNo9L-Regu-61" transform="translate(88.566907 0) scale(0.996264)"/>
     <use xlink:href="#NimbusRomNo9L-Regu-72" transform="translate(132.800475 0) scale(0.996264)"/>
     <use xlink:href="#NimbusRomNo9L-Regu-6b" transform="translate(165.975705 0) scale(0.996264)"/>
     <use xlink:href="#NimbusRomNo9L-Regu-65" transform="translate(214.792809 0) scale(0.996264)"/>
     <use xlink:href="#NimbusRomNo9L-Regu-74" transform="translate(259.026378 0) scale(0.996264)"/>
     <use xlink:href="#NimbusRomNo9L-Regu-65" transform="translate(311.628147 0) scale(0.996264)"/>
     <use xlink:href="#NimbusRomNo9L-Regu-6e" transform="translate(355.861716 0) scale(0.996264)"/>
     <use xlink:href="#NimbusRomNo9L-Regu-74" transform="translate(405.674917 0) scale(0.996264)"/>
     <use xlink:href="#NimbusRomNo9L-Regu-72" transform="translate(433.370086 0) scale(0.996264)"/>
     <use xlink:href="#NimbusRomNo9L-Regu-79" transform="translate(466.545316 0) scale(0.996264)"/>
    </g>
   </g>
   <g id="text_16">
    <!-- Growing market presence -->
    <g transform="translate(44.620033 101.371765) scale(0.1 -0.1)">
     <defs>
      <path id="NimbusRomNo9L-Regu-47" d="M 4538 2291 
L 2906 2291 
L 2906 2176 
C 3181 2156 3258 2137 3334 2086 
C 3430 2028 3469 1881 3469 1606 
L 3469 569 
C 3469 364 3078 192 2618 192 
C 1574 192 934 921 934 2112 
C 934 2713 1114 3296 1395 3609 
C 1677 3923 2074 4095 2509 4095 
C 2867 4095 3181 3974 3430 3744 
C 3622 3565 3725 3392 3885 3001 
L 4032 3001 
L 3981 4352 
L 3840 4352 
C 3802 4230 3686 4140 3552 4140 
C 3488 4140 3386 4159 3270 4204 
C 2982 4300 2688 4352 2400 4352 
C 1120 4352 205 3411 205 2105 
C 205 1478 378 998 736 620 
C 1165 179 1779 -64 2483 -64 
C 3034 -64 3834 160 4090 384 
L 4090 1683 
C 4090 2060 4166 2144 4538 2176 
L 4538 2291 
z
" transform="scale(0.015625)"/>
      <path id="NimbusRomNo9L-Regu-77" d="M 3654 2880 
L 3654 2783 
C 3872 2739 3936 2695 3936 2587 
C 3936 2492 3898 2340 3827 2168 
L 3251 761 
L 2714 2181 
C 2605 2473 2605 2473 2605 2555 
C 2605 2695 2675 2739 2976 2783 
L 2976 2880 
L 1677 2880 
L 1677 2783 
C 1914 2758 1990 2688 2118 2346 
C 2163 2225 2208 2105 2246 1991 
L 1664 729 
L 1030 2384 
C 1005 2447 992 2511 992 2574 
C 992 2707 1069 2758 1286 2783 
L 1286 2880 
L 134 2880 
L 134 2783 
C 282 2771 333 2707 474 2384 
L 1338 216 
C 1414 25 1466 -64 1504 -64 
C 1536 -64 1587 19 1664 184 
L 2381 1706 
L 2963 209 
C 3053 -26 3078 -64 3117 -64 
C 3162 -64 3194 -7 3296 247 
L 4179 2441 
C 4294 2707 4314 2739 4442 2783 
L 4442 2880 
L 3654 2880 
z
" transform="scale(0.015625)"/>
      <path id="NimbusRomNo9L-Regu-67" d="M 3008 2438 
L 3008 2688 
L 2515 2688 
C 2387 2688 2291 2734 2163 2796 
L 2022 2847 
C 1850 2911 1677 2944 1510 2944 
C 915 2944 442 2438 442 1877 
C 442 1489 614 1255 1037 1049 
C 915 934 800 826 762 794 
C 550 610 467 483 467 356 
C 467 223 544 147 806 19 
C 352 -316 179 -529 179 -767 
C 179 -1108 678 -1389 1286 -1389 
C 1766 -1389 2266 -1223 2598 -954 
C 2842 -754 2950 -548 2950 -303 
C 2950 96 2650 363 2176 382 
L 1350 420 
C 1011 432 851 490 851 591 
C 851 718 1062 941 1235 992 
C 1293 985 1338 979 1357 979 
C 1478 966 1562 960 1600 960 
C 1837 960 2093 1056 2291 1224 
C 2502 1397 2598 1612 2598 1920 
C 2598 2099 2566 2241 2477 2438 
L 3008 2438 
z
M 941 0 
C 1152 -46 1664 -84 1978 -84 
C 2560 -84 2771 -168 2771 -400 
C 2771 -773 2285 -1024 1562 -1024 
C 998 -1024 627 -838 627 -554 
C 627 -406 672 -322 941 0 
z
M 973 2130 
C 973 2495 1152 2764 1446 2764 
C 1645 2764 1811 2611 1914 2419 
C 2029 2204 2106 1920 2106 1680 
C 2106 1335 1920 1120 1626 1120 
C 1242 1120 973 1520 973 2111 
L 973 2130 
z
" transform="scale(0.015625)"/>
     </defs>
     <use xlink:href="#NimbusRomNo9L-Regu-47" transform="scale(0.996264)"/>
     <use xlink:href="#NimbusRomNo9L-Regu-72" transform="translate(71.929985 0) scale(0.996264)"/>
     <use xlink:href="#NimbusRomNo9L-Regu-6f" transform="translate(105.105215 0) scale(0.996264)"/>
     <use xlink:href="#NimbusRomNo9L-Regu-77" transform="translate(152.427785 0) scale(0.996264)"/>
     <use xlink:href="#NimbusRomNo9L-Regu-69" transform="translate(224.35777 0) scale(0.996264)"/>
     <use xlink:href="#NimbusRomNo9L-Regu-6e" transform="translate(252.05294 0) scale(0.996264)"/>
     <use xlink:href="#NimbusRomNo9L-Regu-67" transform="translate(301.86614 0) scale(0.996264)"/>
     <use xlink:href="#NimbusRomNo9L-Regu-6d" transform="translate(376.585941 0) scale(0.996264)"/>
     <use xlink:href="#NimbusRomNo9L-Regu-61" transform="translate(454.094311 0) scale(0.996264)"/>
     <use xlink:href="#NimbusRomNo9L-Regu-72" transform="translate(498.32788 0) scale(0.996264)"/>
     <use xlink:href="#NimbusRomNo9L-Regu-6b" transform="translate(531.50311 0) scale(0.996264)"/>
     <use xlink:href="#NimbusRomNo9L-Regu-65" transform="translate(580.320213 0) scale(0.996264)"/>
     <use xlink:href="#NimbusRomNo9L-Regu-74" transform="translate(624.553782 0) scale(0.996264)"/>
     <use xlink:href="#NimbusRomNo9L-Regu-70" transform="translate(677.155552 0) scale(0.996264)"/>
     <use xlink:href="#NimbusRomNo9L-Regu-72" transform="translate(726.968752 0) scale(0.996264)"/>
     <use xlink:href="#NimbusRomNo9L-Regu-65" transform="translate(760.143982 0) scale(0.996264)"/>
     <use xlink:href="#NimbusRomNo9L-Regu-73" transform="translate(804.377551 0) scale(0.996264)"/>
     <use xlink:href="#NimbusRomNo9L-Regu-65" transform="translate(843.131257 0) scale(0.996264)"/>
     <use xlink:href="#NimbusRomNo9L-Regu-6e" transform="translate(887.364826 0) scale(0.996264)"/>
     <use xlink:href="#NimbusRomNo9L-Regu-63" transform="translate(937.178026 0) scale(0.996264)"/>
     <use xlink:href="#NimbusRomNo9L-Regu-65" transform="translate(981.411595 0) scale(0.996264)"/>
    </g>
   </g>
   <g id="text_17">
    <!-- Market dominance -->
    <g transform="translate(44.620033 17.850955) scale(0.1 -0.1)">
     <use xlink:href="#NimbusRomNo9L-Regu-4d" transform="scale(0.996264)"/>
     <use xlink:href="#NimbusRomNo9L-Regu-61" transform="translate(88.566907 0) scale(0.996264)"/>
     <use xlink:href="#NimbusRomNo9L-Regu-72" transform="translate(132.800475 0) scale(0.996264)"/>
     <use xlink:href="#NimbusRomNo9L-Regu-6b" transform="translate(165.975705 0) scale(0.996264)"/>
     <use xlink:href="#NimbusRomNo9L-Regu-65" transform="translate(214.792809 0) scale(0.996264)"/>
     <use xlink:href="#NimbusRomNo9L-Regu-74" transform="translate(259.026378 0) scale(0.996264)"/>
     <use xlink:href="#NimbusRomNo9L-Regu-64" transform="translate(311.628147 0) scale(0.996264)"/>
     <use xlink:href="#NimbusRomNo9L-Regu-6f" transform="translate(361.441348 0) scale(0.996264)"/>
     <use xlink:href="#NimbusRomNo9L-Regu-6d" transform="translate(411.254548 0) scale(0.996264)"/>
     <use xlink:href="#NimbusRomNo9L-Regu-69" transform="translate(488.762918 0) scale(0.996264)"/>
     <use xlink:href="#NimbusRomNo9L-Regu-6e" transform="translate(516.458088 0) scale(0.996264)"/>
     <use xlink:href="#NimbusRomNo9L-Regu-61" transform="translate(566.271289 0) scale(0.996264)"/>
     <use xlink:href="#NimbusRomNo9L-Regu-6e" transform="translate(610.504857 0) scale(0.996264)"/>
     <use xlink:href="#NimbusRomNo9L-Regu-63" transform="translate(660.318058 0) scale(0.996264)"/>
     <use xlink:href="#NimbusRomNo9L-Regu-65" transform="translate(704.551626 0) scale(0.996264)"/>
    </g>
   </g>
   <g id="patch_10">
    <path d="M 59.864454 173.721289 
Q 59.864454 181.33478 59.864454 187.271221 
" style="fill: none; stroke: #000000; stroke-width: 1.5; stroke-linecap: round"/>
    <path d="M 61.864454 183.271221 
L 59.864454 187.271221 
L 57.864454 183.271221 
" style="fill: none; stroke: #000000; stroke-width: 1.5; stroke-linecap: round"/>
   </g>
   <g id="text_18">
    <!-- PC-0 -->
    <g transform="translate(49.622953 167.559909) scale(0.1 -0.1)">
     <defs>
      <path id="NimbusRomNo9L-Regu-2d" d="M 250 1664 
L 250 1260 
L 1824 1260 
L 1824 1664 
L 250 1664 
z
" transform="scale(0.015625)"/>
     </defs>
     <use xlink:href="#NimbusRomNo9L-Regu-50" transform="scale(0.996264)"/>
     <use xlink:href="#NimbusRomNo9L-Regu-43" transform="translate(55.391677 0) scale(0.996264)"/>
     <use xlink:href="#NimbusRomNo9L-Regu-2d" transform="translate(121.841708 0) scale(0.996264)"/>
     <use xlink:href="#NimbusRomNo9L-Regu-30" transform="translate(155.016938 0) scale(0.996264)"/>
    </g>
   </g>
   <g id="patch_11">
    <path d="M 352.359678 18.763572 
Q 371.264934 19.327615 388.493885 19.841645 
" style="fill: none; stroke: #000000; stroke-width: 1.5; stroke-linecap: round"/>
    <path d="M 384.555308 17.723247 
L 388.493885 19.841645 
L 384.43602 21.721467 
" style="fill: none; stroke: #000000; stroke-width: 1.5; stroke-linecap: round"/>
   </g>
   <g id="text_19">
    <!-- PC-50 -->
    <g transform="translate(322.898431 20.56333) scale(0.1 -0.1)">
     <use xlink:href="#NimbusRomNo9L-Regu-50" transform="scale(0.996264)"/>
     <use xlink:href="#NimbusRomNo9L-Regu-43" transform="translate(55.391677 0) scale(0.996264)"/>
     <use xlink:href="#NimbusRomNo9L-Regu-2d" transform="translate(121.841708 0) scale(0.996264)"/>
     <use xlink:href="#NimbusRomNo9L-Regu-35" transform="translate(155.016938 0) scale(0.996264)"/>
     <use xlink:href="#NimbusRomNo9L-Regu-30" transform="translate(204.830138 0) scale(0.996264)"/>
    </g>
   </g>
   <g id="legend_1">
    <g id="line2d_5">
     <path d="M 75.07617 229.637454 
L 83.07617 229.637454 
L 91.07617 229.637454 
" style="fill: none; stroke-dasharray: 7.4,3.2; stroke-dashoffset: 0; stroke: #011959; stroke-width: 2"/>
     <g>
      <use xlink:href="#m4a6eedfd54" x="83.07617" y="229.637454" style="fill: #011959; stroke: #011959; stroke-linejoin: miter"/>
     </g>
    </g>
    <g id="text_20">
     <!-- $STH=10~\mathrm{\%}$ -->
     <g transform="translate(97.47617 232.437454) scale(0.08 -0.08)">
      <defs>
       <path id="NimbusRomNo9L-ReguItal-53" d="M 2995 3014 
L 3251 4288 
L 3104 4288 
C 3014 4153 2957 4121 2816 4121 
C 2739 4121 2669 4140 2522 4191 
C 2381 4255 2176 4288 1978 4288 
C 1312 4288 838 3843 838 3210 
C 838 2861 934 2674 1318 2260 
C 1376 2202 1459 2112 1568 1989 
C 1683 1866 1773 1769 1818 1717 
C 2118 1401 2202 1233 2202 955 
C 2202 470 1843 96 1376 96 
C 845 96 442 554 442 1168 
C 442 1220 448 1272 454 1317 
L 326 1330 
L 109 -109 
L 224 -109 
C 269 38 339 102 467 102 
C 538 102 634 76 800 19 
C 1094 -90 1267 -128 1466 -128 
C 2202 -128 2758 432 2758 1162 
C 2758 1582 2611 1834 2035 2422 
C 1459 3010 1402 3100 1402 3417 
C 1402 3824 1670 4076 2106 4076 
C 2342 4076 2541 3992 2675 3837 
C 2816 3675 2867 3456 2880 3029 
L 2995 3014 
z
" transform="scale(0.015625)"/>
       <path id="NimbusRomNo9L-ReguItal-54" d="M 4051 4160 
L 646 4160 
L 378 3178 
L 493 3152 
C 832 3840 1037 3948 2016 3935 
L 1094 573 
C 992 236 838 134 416 102 
L 416 0 
L 2272 0 
L 2272 102 
C 2163 108 2067 121 2029 121 
C 1773 140 1696 198 1696 389 
C 1696 471 1715 548 1773 764 
L 2662 3935 
L 3014 3935 
C 3475 3935 3680 3776 3680 3420 
C 3680 3337 3674 3242 3661 3133 
L 3770 3121 
L 4051 4160 
z
" transform="scale(0.015625)"/>
       <path id="NimbusRomNo9L-ReguItal-48" d="M 4909 4160 
L 3328 4160 
L 3328 4057 
C 3699 4013 3776 3962 3776 3787 
C 3776 3699 3750 3554 3706 3397 
L 3411 2368 
L 1587 2368 
L 1933 3592 
C 2029 3912 2195 4031 2579 4057 
L 2579 4160 
L 832 4160 
L 832 4057 
C 1229 4019 1325 3969 1325 3787 
C 1325 3699 1299 3554 1254 3397 
L 467 578 
C 352 205 307 166 -51 102 
L -51 0 
L 1523 0 
L 1523 102 
C 1139 153 1069 198 1069 385 
C 1069 430 1075 482 1088 527 
L 1510 2099 
L 3334 2099 
L 2918 578 
C 2816 243 2688 147 2272 102 
L 2272 0 
L 4019 0 
L 4019 102 
C 3610 140 3520 192 3520 372 
C 3520 437 3526 475 3539 527 
L 4384 3592 
C 4493 3956 4544 3994 4909 4057 
L 4909 4160 
z
" transform="scale(0.015625)"/>
       <path id="CMR10-3d" d="M 4397 2111 
C 4493 2111 4614 2111 4614 2239 
C 4614 2368 4493 2368 4403 2368 
L 570 2368 
C 480 2368 358 2368 358 2239 
C 358 2111 480 2111 576 2111 
L 4397 2111 
z
M 4403 832 
C 4493 832 4614 832 4614 960 
C 4614 1088 4493 1088 4397 1088 
L 576 1088 
C 480 1088 358 1088 358 960 
C 358 832 480 832 570 832 
L 4403 832 
z
" transform="scale(0.015625)"/>
      </defs>
      <use xlink:href="#NimbusRomNo9L-ReguItal-53" transform="scale(0.996264)"/>
      <use xlink:href="#NimbusRomNo9L-ReguItal-54" transform="translate(50.609774 0) scale(0.996264)"/>
      <use xlink:href="#NimbusRomNo9L-ReguItal-48" transform="translate(118.653028 0) scale(0.996264)"/>
      <use xlink:href="#CMR10-3d" transform="translate(219.69549 0) scale(0.996264)"/>
      <use xlink:href="#NimbusRomNo9L-Regu-31" transform="translate(319.243343 0) scale(0.996264)"/>
      <use xlink:href="#NimbusRomNo9L-Regu-30" transform="translate(369.056544 0) scale(0.996264)"/>
      <use xlink:href="#NimbusRomNo9L-Regu-25" transform="translate(443.776345 0) scale(0.996264)"/>
     </g>
    </g>
    <g id="line2d_6">
     <path d="M 155.617335 229.637454 
L 163.617335 229.637454 
L 171.617335 229.637454 
" style="fill: none; stroke-dasharray: 2,3.3; stroke-dashoffset: 0; stroke: #011959; stroke-width: 2"/>
     <g>
      <use xlink:href="#m2d8b3e7b81" x="163.617335" y="229.637454" style="fill: #011959; stroke: #011959; stroke-linejoin: miter"/>
     </g>
    </g>
    <g id="text_21">
     <!-- $STH=6~\mathrm{\%}$ -->
     <g transform="translate(178.017335 232.437454) scale(0.08 -0.08)">
      <use xlink:href="#NimbusRomNo9L-ReguItal-53" transform="scale(0.996264)"/>
      <use xlink:href="#NimbusRomNo9L-ReguItal-54" transform="translate(50.609774 0) scale(0.996264)"/>
      <use xlink:href="#NimbusRomNo9L-ReguItal-48" transform="translate(118.653028 0) scale(0.996264)"/>
      <use xlink:href="#CMR10-3d" transform="translate(219.69549 0) scale(0.996264)"/>
      <use xlink:href="#NimbusRomNo9L-Regu-36" transform="translate(319.243343 0) scale(0.996264)"/>
      <use xlink:href="#NimbusRomNo9L-Regu-25" transform="translate(393.963144 0) scale(0.996264)"/>
     </g>
    </g>
    <g id="line2d_7">
     <path d="M 232.173443 229.637454 
L 240.173443 229.637454 
L 248.173443 229.637454 
" style="fill: none; stroke-dasharray: 12.8,3.2,2,3.2; stroke-dashoffset: 0; stroke: #011959; stroke-width: 2"/>
     <g>
      <use xlink:href="#m3cc2685a48" x="240.173443" y="229.637454" style="fill: #011959; stroke: #011959"/>
     </g>
    </g>
    <g id="text_22">
     <!-- $STH=3~\mathrm{\%}$ -->
     <g transform="translate(254.573443 232.437454) scale(0.08 -0.08)">
      <use xlink:href="#NimbusRomNo9L-ReguItal-53" transform="scale(0.996264)"/>
      <use xlink:href="#NimbusRomNo9L-ReguItal-54" transform="translate(50.609774 0) scale(0.996264)"/>
      <use xlink:href="#NimbusRomNo9L-ReguItal-48" transform="translate(118.653028 0) scale(0.996264)"/>
      <use xlink:href="#CMR10-3d" transform="translate(219.69549 0) scale(0.996264)"/>
      <use xlink:href="#NimbusRomNo9L-Regu-33" transform="translate(319.243343 0) scale(0.996264)"/>
      <use xlink:href="#NimbusRomNo9L-Regu-25" transform="translate(393.963144 0) scale(0.996264)"/>
     </g>
    </g>
    <g id="line2d_8">
     <path d="M 308.729552 229.637454 
L 316.729552 229.637454 
L 324.729552 229.637454 
" style="fill: none; stroke-dasharray: 7.4,3.2; stroke-dashoffset: 0; stroke: #f8a17b; stroke-width: 2"/>
     <g>
      <use xlink:href="#m153164f5ad" x="316.729552" y="229.637454" style="fill: #f8a17b; stroke: #f8a17b; stroke-linejoin: miter"/>
     </g>
    </g>
    <g id="text_23">
     <!-- $STH=10~\mathrm{\%}$, -->
     <g transform="translate(331.129552 227.469798) scale(0.08 -0.08)">
      <defs>
       <path id="NimbusRomNo9L-Regu-2c" d="M 531 -890 
C 960 -679 1248 -289 1248 96 
C 1248 416 1024 665 736 665 
C 512 665 358 518 358 300 
C 358 57 506 -64 736 -64 
C 774 -64 819 -58 858 -52 
C 902 0 902 0 909 0 
C 960 0 998 -39 998 -90 
C 998 -295 819 -532 474 -769 
L 531 -890 
z
" transform="scale(0.015625)"/>
      </defs>
      <use xlink:href="#NimbusRomNo9L-ReguItal-53" transform="scale(0.996264)"/>
      <use xlink:href="#NimbusRomNo9L-ReguItal-54" transform="translate(50.609774 0) scale(0.996264)"/>
      <use xlink:href="#NimbusRomNo9L-ReguItal-48" transform="translate(118.653028 0) scale(0.996264)"/>
      <use xlink:href="#CMR10-3d" transform="translate(219.69549 0) scale(0.996264)"/>
      <use xlink:href="#NimbusRomNo9L-Regu-31" transform="translate(319.243343 0) scale(0.996264)"/>
      <use xlink:href="#NimbusRomNo9L-Regu-30" transform="translate(369.056544 0) scale(0.996264)"/>
      <use xlink:href="#NimbusRomNo9L-Regu-25" transform="translate(443.776345 0) scale(0.996264)"/>
      <use xlink:href="#NimbusRomNo9L-Regu-2c" transform="translate(526.764775 0) scale(0.996264)"/>
     </g>
     <!-- no UGHS -->
     <g transform="translate(331.129552 235.679648) scale(0.08 -0.08)">
      <defs>
       <path id="NimbusRomNo9L-Regu-55" d="M 3910 3291 
C 3910 3937 3987 4038 4512 4102 
L 4512 4224 
L 3027 4224 
L 3027 4102 
C 3526 4064 3629 3924 3629 3291 
L 3629 1580 
C 3629 1149 3584 908 3482 718 
C 3309 414 2899 217 2419 217 
C 1965 217 1651 369 1478 667 
C 1363 870 1318 1104 1318 1504 
L 1318 3531 
C 1318 3988 1389 4057 1901 4102 
L 1901 4224 
L 90 4224 
L 90 4102 
C 595 4064 666 3994 666 3531 
L 666 1554 
C 666 458 1184 -64 2272 -64 
C 2970 -64 3450 160 3699 591 
C 3853 857 3910 1149 3910 1637 
L 3910 3291 
z
" transform="scale(0.015625)"/>
       <path id="NimbusRomNo9L-Regu-48" d="M 1338 2304 
L 1338 3532 
C 1338 3988 1408 4057 1901 4102 
L 1901 4224 
L 122 4224 
L 122 4102 
C 614 4057 685 3988 685 3532 
L 685 770 
C 685 230 621 153 122 121 
L 122 0 
L 1901 0 
L 1901 121 
C 1421 160 1338 243 1338 699 
L 1338 2022 
L 3277 2022 
L 3277 770 
C 3277 230 3213 153 2714 121 
L 2714 0 
L 4493 0 
L 4493 121 
C 4013 160 3930 243 3930 699 
L 3930 3532 
C 3930 3988 4000 4057 4493 4102 
L 4493 4224 
L 2714 4224 
L 2714 4102 
C 3206 4057 3277 3988 3277 3532 
L 3277 2304 
L 1338 2304 
z
" transform="scale(0.015625)"/>
       <path id="NimbusRomNo9L-Regu-53" d="M 2861 4313 
L 2726 4313 
C 2701 4166 2630 4095 2522 4095 
C 2458 4095 2349 4121 2240 4172 
C 2003 4300 1766 4352 1562 4352 
C 1286 4352 1005 4243 794 4057 
C 570 3859 454 3590 454 3257 
C 454 2745 736 2387 1453 2009 
C 1914 1766 2246 1504 2406 1260 
C 2464 1177 2496 1043 2496 889 
C 2496 460 2176 166 1709 166 
C 1139 166 736 518 416 1299 
L 269 1299 
L 461 -58 
L 602 -58 
C 608 38 685 128 781 128 
C 851 128 960 102 1082 57 
C 1325 -13 1581 -64 1837 -64 
C 2573 -64 3142 441 3142 1100 
C 3142 1625 2790 2041 1946 2496 
C 1274 2867 1005 3148 1005 3494 
C 1005 3846 1274 4089 1670 4089 
C 1958 4089 2227 3968 2451 3737 
C 2650 3533 2739 3366 2842 2988 
L 3002 2988 
L 2861 4313 
z
" transform="scale(0.015625)"/>
      </defs>
      <use xlink:href="#NimbusRomNo9L-Regu-6e" transform="scale(0.996264)"/>
      <use xlink:href="#NimbusRomNo9L-Regu-6f" transform="translate(49.8132 0) scale(0.996264)"/>
      <use xlink:href="#NimbusRomNo9L-Regu-55" transform="translate(124.533001 0) scale(0.996264)"/>
      <use xlink:href="#NimbusRomNo9L-Regu-47" transform="translate(196.462986 0) scale(0.996264)"/>
      <use xlink:href="#NimbusRomNo9L-Regu-48" transform="translate(268.392971 0) scale(0.996264)"/>
      <use xlink:href="#NimbusRomNo9L-Regu-53" transform="translate(340.322956 0) scale(0.996264)"/>
     </g>
    </g>
   </g>
  </g>
 </g>
 <defs>
  <clipPath id="pe98113e271">
   <rect x="34.681519" y="7.2" width="380.976378" height="187.086614"/>
  </clipPath>
 </defs>
</svg>
